{
	"accessors": [
		{
			"bufferView": 1,
			"byteOffset": 0,
			"componentType": 5126,
			"count": 76809,
			"max": [
				7.0467000007629395,
				3.1512999534606934,
				0.0
			],
			"min": [
				-7.0467000007629395,
				-3.1512999534606934,
				-9.939900398254395
			],
			"type": "VEC3"
		},
		{
			"bufferView": 2,
			"byteOffset": 0,
			"componentType": 5126,
			"count": 76809,
			"type": "VEC3"
		},
		{
			"bufferView": 3,
			"byteOffset": 0,
			"componentType": 5126,
			"count": 76809,
			"type": "VEC2"
		},
		{
			"bufferView": 4,
			"byteOffset": 0,
			"componentType": 5125,
			"count": 273648,
			"type": "SCALAR"
		}
	],
	"asset": {
		"extras": {
			"created": "Mon Dec 13 11:50:23 2021"
		},
		"generator": "Gestaltor 2021.6.1  Development (internal) (dev-0f580e79a*)",
		"version": "2.0"
	},
	"bufferViews": [
		{
			"buffer": 0,
			"byteLength": 3275080,
			"byteOffset": 0
		},
		{
			"buffer": 0,
			"byteLength": 921708,
			"byteOffset": 3275080
		},
		{
			"buffer": 0,
			"byteLength": 921708,
			"byteOffset": 4196788
		},
		{
			"buffer": 0,
			"byteLength": 614472,
			"byteOffset": 5118496
		},
		{
			"buffer": 0,
			"byteLength": 1094592,
			"byteOffset": 5732968
		}
	],
	"buffers": [
		{
			"byteLength": 6827560,
			"uri": "Dragon_Thickness_PunctualLights.bin"
		}
	],
	"extensions": {
		"KHR_lights_punctual": {
			"lights": [
				{
					"color": [
						0.9,
						0.1,
						0.000106813153277
					],
					"intensity": 10000.0,
					"type": "point"
				},
				{
					"color": [
						0.1,
						0.729915312428473,
						0.9
					],
					"intensity": 10000.0,
					"spot": {
						"outerConeAngle": 0.5
					},
					"type": "spot"
				}
			]
		}
	},
	"extensionsUsed": [
		"KHR_lights_punctual",
		"KHR_materials_ior",
		"KHR_materials_transmission",
		"KHR_materials_volume"
	],
	"images": [
		{
			"bufferView": 0,
			"mimeType": "image/png",
			"name": "Dragon_ThicknessMap"
		}
	],
	"materials": [
		{
			"extensions": {
				"KHR_materials_ior": {
					"ior": 6.0
				},
				"KHR_materials_transmission": {
					"transmissionFactor": 1.0
				},
				"KHR_materials_volume": {
					"attenuationColor": [
						0.0,
						0.673044937819486,
						1.0
					],
					"attenuationDistance": 12.499999999999986,
					"thicknessFactor": 6.999999999999994,
					"thicknessTexture": {
						"index": 0
					}
				}
			},
			"name": "Thickness",
			"pbrMetallicRoughness": {
				"metallicFactor": 0.0,
				"roughnessFactor": 0.1
			}
		}
	],
	"meshes": [
		{
			"name": "Dragon",
			"primitives": [
				{
					"attributes": {
						"NORMAL": 1,
						"POSITION": 0,
						"TEXCOORD_0": 2
					},
					"indices": 3,
					"material": 0,
					"mode": 4
				}
			]
		}
	],
	"nodes": [
		{
			"mesh": 0,
			"name": "Dragon",
			"rotation": [
				0.7487534357168761,
				7.201851204218389e-10,
				2.4364754783592266e-10,
				0.6628486195973963
			],
			"translation": [
				0.0,
				0.1558476686477661,
				0.0
			]
		},
		{
			"extensions": {
				"KHR_lights_punctual": {
					"light": 0
				}
			},
			"name": "Light 1",
			"translation": [
				4.803581476211548,
				4.299536943435669,
				-8.58253300189972
			]
		},
		{
			"children": [
				0,
				1,
				4
			],
			"name": "Root"
		},
		{
			"name": "Dragon"
		},
		{
			"extensions": {
				"KHR_lights_punctual": {
					"light": 1
				}
			},
			"name": "Light 2",
			"rotation": [
				0.992846061171551,
				5.4163384515850586e-08,
				-7.795855441356392e-08,
				0.11940141881957576
			],
			"translation": [
				-5.477444887161255,
				6.994719505310059,
				-8.58253300189972
			]
		}
	],
	"scene": 0,
	"scenes": [
		{
			"name": "Scene",
			"nodes": [
				2
			]
		}
	],
	"textures": [
		{
			"source": 0
		}
	]
}